<?xml version="1.0" encoding="UTF-8"?>
<!DOCTYPE svg PUBLIC "-//W3C//DTD SVG 1.1//EN" "http://www.w3.org/Graphics/SVG/1.1/DTD/svg11.dtd">
<!-- Creator: CorelDRAW -->
<svg xmlns="http://www.w3.org/2000/svg" xml:space="preserve" width="39.2265mm" height="19.7198mm" version="1.1" style="shape-rendering:geometricPrecision; text-rendering:geometricPrecision; image-rendering:optimizeQuality; fill-rule:evenodd; clip-rule:evenodd"
viewBox="0 0 281.26 141.4"
 xmlns:xlink="http://www.w3.org/1999/xlink"
 xmlns:xodm="http://www.corel.com/coreldraw/odm/2003">
 <defs>
  <style type="text/css">
   <![CDATA[
    .str0 {stroke:fuchsia;stroke-width:3.59;stroke-linejoin:round;stroke-miterlimit:22.9256}
    .fil0 {fill:none;fill-rule:nonzero}
    .fil1 {fill:#572677;fill-rule:nonzero}
    .fil2 {fill:white;fill-rule:nonzero}
   ]]>
  </style>
 </defs>
 <g id="Layer_x0020_1">
  <metadata id="CorelCorpID_0Corel-Layer"/>
  <g>
   <path class="fil0 str0" d="M29.24 62.5l53.12 0 -15.18 -15.18 -30.35 0 -7.59 7.59 0 2.26 0 5.33zm60.71 0l7.59 -7.59 0 -15.18 -15.18 -15.18 -30.35 0 15.18 15.18 7.59 0 7.59 7.59 -7.59 0 15.18 15.18zm-53.12 -22.77l22.77 0 -30.35 -30.35 0 6.82 0 15.95 7.59 7.59zm7.59 -22.77l53.12 0 0 -15.18 -68.3 0 15.18 15.18z"/>
  </g>
  <g>
   <path id="_1" class="fil0 str0" d="M118.77 62.5l45.53 0 7.59 -7.59 0 -45.53 -15.18 15.18 0 22.77 -22.77 0 -15.18 15.18zm-15.18 -7.59l15.18 -15.18 0 -22.77 22.77 0 15.18 -15.18 -45.53 0 -7.59 7.59 0 13.64 0 31.89zm0 7.59l7.59 0 60.71 -60.71 -7.59 0 -60.71 60.71z"/>
  </g>
  <g>
   <path id="_2" class="fil0 str0" d="M177.94 62.5l7.59 0 15.18 -15.18 -15.18 0 -7.59 7.59 0 2.26 0 5.33zm15.18 -22.77l15.18 0 15.18 -15.18 -22.77 0 -7.59 7.59 0 7.59zm0 22.77l53.12 0 0 -53.12 -30.35 30.35 15.18 0 0 7.59 -22.77 0 -15.18 15.18zm-7.59 -45.53l45.53 0 15.18 -15.18 -68.3 0 0 2.26 0 5.33 7.59 7.59z"/>
  </g>
  <path id="_3" class="fil1" d="M29.24 62.5l53.12 0 -15.18 -15.18 -30.35 0 -7.59 7.59 0 2.26 0 5.33zm60.71 0l7.59 -7.59 0 -15.18 -15.18 -15.18 -30.35 0 15.18 15.18 7.59 0 7.59 7.59 -7.59 0 15.18 15.18zm-53.12 -22.77l22.77 0 -30.35 -30.35 0 6.82 0 15.95 7.59 7.59zm7.59 -22.77l53.12 0 0 -15.18 -68.3 0 15.18 15.18z"/>
  <path id="_4" class="fil1" d="M118.77 62.5l45.53 0 7.59 -7.59 0 -45.53 -15.18 15.18 0 22.77 -22.77 0 -15.18 15.18zm-15.18 -7.59l15.18 -15.18 0 -22.77 22.77 0 15.18 -15.18 -45.53 0 -7.59 7.59 0 13.64 0 31.89zm0 7.59l7.59 0 60.71 -60.71 -7.59 0 -60.71 60.71z"/>
  <path id="_5" class="fil1" d="M177.94 62.5l7.59 0 15.18 -15.18 -15.18 0 -7.59 7.59 0 2.26 0 5.33zm15.18 -22.77l15.18 0 15.18 -15.18 -22.77 0 -7.59 7.59 0 7.59zm0 22.77l53.12 0 0 -53.12 -30.35 30.35 15.18 0 0 7.59 -22.77 0 -15.18 15.18zm-7.59 -45.53l45.53 0 15.18 -15.18 -68.3 0 0 2.26 0 5.33 7.59 7.59z"/>
  <path class="fil2" d="M-0 97.32l5.46 0 0 -10.93 -5.46 -5.46 0 4.91 0 11.48zm19.12 0l5.46 0 0 -2.73 -19.12 -19.12 -5.46 0 0 0.81 0 1.92 19.12 19.12zm10.93 0l5.46 0 0 -2.73 -19.12 -19.12 -5.46 0 0 2.73 19.12 19.12z"/>
  <polygon id="_1_0" class="fil2" points="37.69,97.32 43.15,97.32 56.81,83.67 56.81,89.13 54.07,89.13 48.61,94.59 56.81,94.59 56.81,97.32 62.27,97.32 62.27,75.47 56.81,75.47 37.69,94.59 37.69,95.41 "/>
  <polygon id="_2_1" class="fil2" points="64.45,97.32 69.91,97.32 69.91,75.47 64.45,75.47 64.45,82.03 "/>
  <path id="_3_2" class="fil2" d="M72.09 97.32l5.46 0 0 -10.93 -5.46 -5.46 0 4.91 0 11.48zm19.12 0l5.46 0 0 -21.85 -5.46 0 0 13.66 -13.66 -13.66 -5.46 0 0 0.81 0 1.92 19.12 19.12z"/>
  <polygon id="_4_3" class="fil2" points="107.04,97.32 112.51,97.32 112.51,80.94 117.97,80.94 120.7,78.2 120.7,75.47 98.85,75.47 98.85,77.12 98.85,80.94 107.04,80.94 "/>
  <path id="_5_4" class="fil2" d="M122.88 97.32l24.58 0 0 -2.73 -2.73 -2.73 -10.93 0 2.73 -2.73 8.19 0 0 -5.46 -8.19 0 -8.19 -8.19 -5.46 0 0 2.73 8.19 8.19 -8.19 8.19 0 0.81 0 1.92zm13.66 -16.39l8.19 0 2.73 -2.73 0 -2.73 -16.39 0 5.46 5.46z"/>
  <path id="_6" class="fil2" d="M149.64 97.32l5.46 0 0 -10.93 -5.46 -5.46 0 4.91 0 11.48zm19.12 0l5.46 0 0 -21.85 -5.46 0 0 13.66 -13.66 -13.66 -5.46 0 0 0.81 0 1.92 19.12 19.12z"/>
  <polygon id="_7" class="fil2" points="176.4,97.32 181.86,97.32 195.52,83.67 195.52,89.13 192.79,89.13 187.32,94.59 195.52,94.59 195.52,97.32 200.98,97.32 200.98,75.47 195.52,75.47 176.4,94.59 176.4,95.41 "/>
  <path id="_8" class="fil2" d="M203.16 97.32l5.46 0 0 -10.93 -5.46 -5.46 0 4.91 0 11.48zm19.12 0l5.46 0 0 -21.85 -5.46 0 0 13.66 -13.66 -13.66 -5.46 0 0 0.81 0 1.92 19.12 19.12z"/>
  <path id="_9" class="fil2" d="M229.92 97.32l24.58 0 0 -2.73 -2.73 -2.73 -16.39 0 -5.46 5.46zm0 -2.73l5.46 -5.46 0 -5.46 2.73 -2.73 13.66 0 2.73 -2.73 0 -2.73 -19.12 0 -5.46 5.46 0 4.1 0 9.56z"/>
  <path id="_10" class="fil2" d="M256.68 97.32l24.58 0 0 -2.73 -2.73 -2.73 -10.93 0 2.73 -2.73 8.19 0 0 -5.46 -8.19 0 -8.19 -8.19 -5.46 0 0 2.73 8.19 8.19 -8.19 8.19 0 0.81 0 1.92zm13.66 -16.39l8.19 0 2.73 -2.73 0 -2.73 -16.39 0 5.46 5.46z"/>
  <polygon class="fil2" points="53.6,127.84 50.1,132.82 54.06,138.47 52,138.47 48.63,133.7 47.09,133.7 47.09,138.47 45.32,138.47 45.32,127.84 47.09,127.84 47.09,132.12 48.67,132.12 51.71,127.84 "/>
  <path id="_1_5" class="fil2" d="M57.81 130.36c2.12,0 3.17,1.03 3.17,3.08l0 5.02 -1.52 0 0.02 -1.11 -0.11 0c-0.57,0.87 -1.36,1.3 -2.38,1.3 -0.74,0 -1.33,-0.22 -1.78,-0.64 -0.45,-0.43 -0.67,-1 -0.67,-1.72 0,-0.77 0.29,-1.39 0.86,-1.85 0.57,-0.47 1.44,-0.76 2.6,-0.88l1.3 -0.14c-0.02,-0.56 -0.16,-0.97 -0.43,-1.24 -0.27,-0.27 -0.68,-0.4 -1.24,-0.4 -0.4,0 -0.8,0.05 -1.21,0.14 -0.41,0.1 -0.79,0.24 -1.13,0.42l0 -1.5c0.3,-0.13 0.68,-0.25 1.12,-0.34 0.45,-0.1 0.91,-0.14 1.38,-0.14zm-0.33 6.91c0.51,0 0.94,-0.19 1.3,-0.57 0.36,-0.38 0.54,-0.94 0.54,-1.68l0 -0.39 -1.24 0.12c-1.2,0.13 -1.81,0.59 -1.81,1.37 0,0.35 0.11,0.64 0.33,0.84 0.22,0.21 0.51,0.31 0.89,0.31z"/>
  <path id="_2_6" class="fil2" d="M62.94 138.47l0 -7.92 1.58 0 -0.03 1.02 0.12 0c0.47,-0.8 1.17,-1.2 2.12,-1.2 0.48,0 0.88,0.11 1.21,0.33 0.33,0.22 0.58,0.52 0.73,0.9l0.09 0c0.21,-0.38 0.52,-0.69 0.91,-0.9 0.4,-0.22 0.86,-0.33 1.38,-0.33 0.81,0 1.43,0.24 1.87,0.71 0.44,0.48 0.65,1.14 0.65,2l0 5.39 -1.67 0 0 -5.13c0,-0.54 -0.1,-0.94 -0.31,-1.2 -0.21,-0.26 -0.52,-0.39 -0.95,-0.39 -0.45,0 -0.82,0.18 -1.12,0.54 -0.3,0.36 -0.45,0.82 -0.45,1.37l0 4.81 -1.64 0 0 -5.13c0,-1.06 -0.42,-1.59 -1.24,-1.59 -0.46,0 -0.83,0.18 -1.14,0.54 -0.3,0.36 -0.46,0.82 -0.46,1.37l0 4.81 -1.67 0z"/>
  <path id="_3_7" class="fil2" d="M77.89 138.47l-1.65 0 0 -6.53 -1.52 0 0 -1.4 3.17 0 0 7.92zm-0.91 -8.86c-0.3,0 -0.56,-0.1 -0.77,-0.31 -0.21,-0.21 -0.32,-0.47 -0.32,-0.78 0,-0.31 0.11,-0.57 0.32,-0.78 0.21,-0.21 0.47,-0.31 0.77,-0.31 0.3,0 0.56,0.1 0.77,0.31 0.21,0.21 0.32,0.47 0.32,0.78 0,0.31 -0.11,0.57 -0.32,0.78 -0.21,0.21 -0.47,0.31 -0.77,0.31z"/>
  <path id="_4_8" class="fil2" d="M86.72 130.36c2.12,0 3.17,1.03 3.17,3.08l0 5.02 -1.52 0 0.02 -1.11 -0.11 0c-0.57,0.87 -1.36,1.3 -2.38,1.3 -0.74,0 -1.33,-0.22 -1.78,-0.64 -0.45,-0.43 -0.67,-1 -0.67,-1.72 0,-0.77 0.29,-1.39 0.86,-1.85 0.57,-0.47 1.44,-0.76 2.6,-0.88l1.3 -0.14c-0.02,-0.56 -0.16,-0.97 -0.43,-1.24 -0.27,-0.27 -0.68,-0.4 -1.24,-0.4 -0.4,0 -0.8,0.05 -1.21,0.14 -0.41,0.1 -0.79,0.24 -1.13,0.42l0 -1.5c0.3,-0.13 0.68,-0.25 1.12,-0.34 0.45,-0.1 0.91,-0.14 1.38,-0.14zm-0.33 6.91c0.51,0 0.94,-0.19 1.3,-0.57 0.36,-0.38 0.54,-0.94 0.54,-1.68l0 -0.39 -1.24 0.12c-1.2,0.13 -1.81,0.59 -1.81,1.37 0,0.35 0.11,0.64 0.33,0.84 0.22,0.21 0.51,0.31 0.89,0.31z"/>
  <polygon id="_5_9" class="fil2" points="98.42,130.54 96.04,134.14 98.8,138.47 96.91,138.47 94.8,134.95 93.48,134.95 93.55,136.13 93.55,138.47 91.88,138.47 91.88,127.84 93.55,127.84 93.55,132.49 93.48,133.56 94.77,133.56 96.65,130.54 "/>
  <path id="_6_10" class="fil2" d="M102.66 130.36c2.12,0 3.17,1.03 3.17,3.08l0 5.02 -1.52 0 0.02 -1.11 -0.11 0c-0.57,0.87 -1.36,1.3 -2.38,1.3 -0.74,0 -1.33,-0.22 -1.78,-0.64 -0.45,-0.43 -0.67,-1 -0.67,-1.72 0,-0.77 0.29,-1.39 0.86,-1.85 0.57,-0.47 1.44,-0.76 2.6,-0.88l1.3 -0.14c-0.02,-0.56 -0.16,-0.97 -0.43,-1.24 -0.27,-0.27 -0.68,-0.4 -1.24,-0.4 -0.4,0 -0.8,0.05 -1.21,0.14 -0.41,0.1 -0.79,0.24 -1.13,0.42l0 -1.5c0.3,-0.13 0.68,-0.25 1.12,-0.34 0.45,-0.1 0.91,-0.14 1.38,-0.14zm-0.33 6.91c0.51,0 0.94,-0.19 1.3,-0.57 0.36,-0.38 0.54,-0.94 0.54,-1.68l0 -0.39 -1.24 0.12c-1.2,0.13 -1.81,0.59 -1.81,1.37 0,0.35 0.11,0.64 0.33,0.84 0.22,0.21 0.51,0.31 0.89,0.31z"/>
  <path id="_7_11" class="fil2" d="M107.79 138.47l0 -7.92 1.58 0 -0.03 1.06 0.12 0c0.26,-0.39 0.61,-0.69 1.03,-0.91 0.43,-0.22 0.91,-0.33 1.44,-0.33 0.81,0 1.44,0.26 1.88,0.77 0.45,0.52 0.67,1.25 0.67,2.2l0 5.13 -1.67 0 0 -4.95c0,-1.18 -0.48,-1.78 -1.43,-1.78 -0.57,0 -1.03,0.2 -1.39,0.6 -0.36,0.4 -0.54,0.92 -0.54,1.57l0 4.55 -1.67 0z"/>
  <path id="_8_12" class="fil2" d="M122.74 138.66c-0.47,0 -0.94,-0.05 -1.43,-0.14 -0.49,-0.09 -0.93,-0.2 -1.34,-0.33l0 -1.46c1.06,0.35 1.96,0.53 2.7,0.53 0.47,0 0.82,-0.08 1.06,-0.25 0.24,-0.17 0.36,-0.4 0.36,-0.71 0,-0.33 -0.13,-0.58 -0.39,-0.75 -0.26,-0.17 -0.66,-0.34 -1.21,-0.51 -0.51,-0.17 -0.92,-0.34 -1.24,-0.49 -0.32,-0.16 -0.6,-0.4 -0.83,-0.73 -0.23,-0.33 -0.34,-0.76 -0.34,-1.28 0,-0.68 0.26,-1.21 0.77,-1.6 0.52,-0.39 1.22,-0.58 2.11,-0.58 0.74,0 1.56,0.13 2.47,0.38l0 1.46c-0.91,-0.3 -1.72,-0.46 -2.43,-0.46 -0.41,0 -0.72,0.07 -0.94,0.21 -0.22,0.14 -0.33,0.34 -0.33,0.61 0,0.32 0.13,0.57 0.38,0.73 0.25,0.16 0.65,0.33 1.18,0.5 0.51,0.16 0.92,0.33 1.25,0.49 0.33,0.17 0.61,0.42 0.84,0.75 0.23,0.33 0.35,0.77 0.35,1.31 0,0.72 -0.27,1.28 -0.8,1.7 -0.53,0.42 -1.27,0.62 -2.22,0.62z"/>
  <path id="_9_13" class="fil2" d="M134.14 134.32c0,0.17 -0.02,0.37 -0.06,0.59l-5.37 0c0.14,1.54 0.98,2.31 2.52,2.31 0.84,0 1.63,-0.2 2.37,-0.61l0 1.53c-0.8,0.34 -1.63,0.52 -2.49,0.52 -1.34,0 -2.36,-0.37 -3.07,-1.1 -0.71,-0.73 -1.07,-1.75 -1.07,-3.06 0,-0.82 0.15,-1.54 0.46,-2.17 0.3,-0.63 0.73,-1.11 1.28,-1.46 0.55,-0.34 1.2,-0.52 1.94,-0.52 1.1,0 1.96,0.35 2.58,1.05 0.62,0.7 0.93,1.67 0.93,2.91zm-3.51 -2.63c-0.52,0 -0.94,0.17 -1.26,0.52 -0.32,0.34 -0.54,0.83 -0.64,1.47l3.72 0c-0.08,-0.64 -0.27,-1.13 -0.58,-1.47 -0.3,-0.34 -0.72,-0.52 -1.24,-0.52z"/>
  <path id="_10_14" class="fil2" d="M140.84 130.54l1.56 0 0 6.94c0,1.33 -0.33,2.31 -0.98,2.95 -0.65,0.64 -1.64,0.96 -2.95,0.96 -0.44,0 -0.89,-0.03 -1.35,-0.1 -0.46,-0.07 -0.86,-0.15 -1.21,-0.27l0 -1.46c0.87,0.27 1.7,0.41 2.49,0.41 0.83,0 1.43,-0.19 1.81,-0.58 0.38,-0.38 0.57,-1 0.57,-1.85l0 -0.21 -0.14 0c-0.24,0.35 -0.56,0.64 -0.94,0.85 -0.38,0.21 -0.83,0.32 -1.35,0.32 -0.65,0 -1.21,-0.17 -1.7,-0.51 -0.49,-0.34 -0.86,-0.82 -1.11,-1.43 -0.26,-0.62 -0.39,-1.33 -0.39,-2.12 0,-0.8 0.14,-1.51 0.41,-2.13 0.27,-0.62 0.66,-1.1 1.17,-1.44 0.51,-0.34 1.09,-0.52 1.76,-0.52 0.52,0 0.97,0.11 1.37,0.34 0.39,0.23 0.71,0.55 0.96,0.96l0.03 -1.12zm-0.11 3.57c0,-0.75 -0.17,-1.33 -0.51,-1.75 -0.34,-0.42 -0.8,-0.62 -1.39,-0.62 -0.61,0 -1.08,0.23 -1.41,0.7 -0.33,0.47 -0.5,1.13 -0.5,2 0,0.87 0.17,1.54 0.5,2 0.33,0.47 0.8,0.7 1.41,0.7 0.59,0 1.05,-0.21 1.39,-0.62 0.34,-0.42 0.51,-1 0.51,-1.75l0 -0.67z"/>
  <path id="_11" class="fil2" d="M151.13 134.32c0,0.17 -0.02,0.37 -0.06,0.59l-5.37 0c0.14,1.54 0.98,2.31 2.52,2.31 0.84,0 1.63,-0.2 2.37,-0.61l0 1.53c-0.8,0.34 -1.63,0.52 -2.49,0.52 -1.34,0 -2.36,-0.37 -3.07,-1.1 -0.71,-0.73 -1.07,-1.75 -1.07,-3.06 0,-0.82 0.15,-1.54 0.46,-2.17 0.3,-0.63 0.73,-1.11 1.28,-1.46 0.55,-0.34 1.2,-0.52 1.94,-0.52 1.1,0 1.96,0.35 2.58,1.05 0.62,0.7 0.93,1.67 0.93,2.91zm-3.51 -2.63c-0.52,0 -0.94,0.17 -1.26,0.52 -0.32,0.34 -0.54,0.83 -0.64,1.47l3.72 0c-0.08,-0.64 -0.27,-1.13 -0.58,-1.47 -0.3,-0.34 -0.72,-0.52 -1.24,-0.52z"/>
  <path id="_12" class="fil2" d="M152.64 138.47l0 -7.92 1.5 0 -0.02 1.2 0.11 0c0.22,-0.39 0.53,-0.71 0.92,-0.93 0.39,-0.23 0.84,-0.34 1.34,-0.34 0.24,0 0.45,0.03 0.62,0.08l0 1.53c-0.25,-0.05 -0.47,-0.08 -0.64,-0.08 -0.66,0 -1.18,0.23 -1.58,0.69 -0.39,0.46 -0.59,1.07 -0.59,1.84l0 3.93 -1.67 0z"/>
  <path id="_13" class="fil2" d="M160.86 130.36c2.12,0 3.17,1.03 3.17,3.08l0 5.02 -1.52 0 0.02 -1.11 -0.11 0c-0.57,0.87 -1.36,1.3 -2.38,1.3 -0.74,0 -1.33,-0.22 -1.78,-0.64 -0.45,-0.43 -0.67,-1 -0.67,-1.72 0,-0.77 0.29,-1.39 0.86,-1.85 0.57,-0.47 1.44,-0.76 2.6,-0.88l1.3 -0.14c-0.02,-0.56 -0.16,-0.97 -0.43,-1.24 -0.27,-0.27 -0.68,-0.4 -1.24,-0.4 -0.4,0 -0.8,0.05 -1.21,0.14 -0.41,0.1 -0.79,0.24 -1.13,0.42l0 -1.5c0.3,-0.13 0.68,-0.25 1.12,-0.34 0.45,-0.1 0.91,-0.14 1.38,-0.14zm-0.33 6.91c0.51,0 0.94,-0.19 1.3,-0.57 0.36,-0.38 0.54,-0.94 0.54,-1.68l0 -0.39 -1.24 0.12c-1.2,0.13 -1.81,0.59 -1.81,1.37 0,0.35 0.11,0.64 0.33,0.84 0.22,0.21 0.51,0.31 0.89,0.31z"/>
  <polygon id="_14" class="fil2" points="176.51,130.54 174.13,134.14 176.89,138.47 174.99,138.47 172.88,134.95 171.56,134.95 171.64,136.13 171.64,138.47 169.97,138.47 169.97,127.84 171.64,127.84 171.64,132.49 171.56,133.56 172.85,133.56 174.73,130.54 "/>
  <path id="_15" class="fil2" d="M184.45 134.32c0,0.17 -0.02,0.37 -0.06,0.59l-5.37 0c0.14,1.54 0.98,2.31 2.52,2.31 0.84,0 1.63,-0.2 2.37,-0.61l0 1.53c-0.8,0.34 -1.63,0.52 -2.49,0.52 -1.34,0 -2.36,-0.37 -3.07,-1.1 -0.71,-0.73 -1.07,-1.75 -1.07,-3.06 0,-0.82 0.15,-1.54 0.46,-2.17 0.3,-0.63 0.73,-1.11 1.28,-1.46 0.55,-0.34 1.2,-0.52 1.94,-0.52 1.1,0 1.96,0.35 2.58,1.05 0.62,0.7 0.93,1.67 0.93,2.91zm-3.51 -2.63c-0.52,0 -0.94,0.17 -1.26,0.52 -0.32,0.34 -0.54,0.83 -0.64,1.47l3.72 0c-0.08,-0.64 -0.27,-1.13 -0.58,-1.47 -0.3,-0.34 -0.72,-0.52 -1.24,-0.52z"/>
  <path id="_16" class="fil2" d="M185.95 138.47l0 -7.92 1.58 0 -0.03 1.02 0.12 0c0.47,-0.8 1.17,-1.2 2.12,-1.2 0.48,0 0.88,0.11 1.21,0.33 0.33,0.22 0.58,0.52 0.73,0.9l0.09 0c0.21,-0.38 0.52,-0.69 0.91,-0.9 0.4,-0.22 0.86,-0.33 1.38,-0.33 0.81,0 1.43,0.24 1.87,0.71 0.44,0.48 0.65,1.14 0.65,2l0 5.39 -1.67 0 0 -5.13c0,-0.54 -0.1,-0.94 -0.31,-1.2 -0.21,-0.26 -0.52,-0.39 -0.95,-0.39 -0.45,0 -0.82,0.18 -1.12,0.54 -0.3,0.36 -0.45,0.82 -0.45,1.37l0 4.81 -1.64 0 0 -5.13c0,-1.06 -0.42,-1.59 -1.24,-1.59 -0.46,0 -0.83,0.18 -1.14,0.54 -0.3,0.36 -0.46,0.82 -0.46,1.37l0 4.81 -1.67 0z"/>
  <path id="_17" class="fil2" d="M202.63 130.36c0.65,0 1.21,0.17 1.7,0.51 0.49,0.34 0.86,0.82 1.12,1.45 0.26,0.63 0.39,1.36 0.39,2.19 0,0.83 -0.14,1.56 -0.41,2.19 -0.27,0.63 -0.66,1.11 -1.17,1.46 -0.51,0.34 -1.09,0.52 -1.76,0.52 -1.02,0 -1.81,-0.45 -2.35,-1.35l-0.03 1.15 -1.53 0 0 -10.62 1.67 0 0 2.55 -0.05 1.14 0.12 0c0.24,-0.35 0.56,-0.64 0.95,-0.85 0.39,-0.21 0.84,-0.32 1.36,-0.32zm-0.49 6.91c0.62,0 1.09,-0.24 1.42,-0.71 0.33,-0.47 0.49,-1.16 0.49,-2.06 0,-0.9 -0.16,-1.59 -0.49,-2.06 -0.33,-0.47 -0.8,-0.71 -1.42,-0.71 -0.59,0 -1.05,0.21 -1.39,0.63 -0.34,0.42 -0.51,1.01 -0.51,1.77l0 0.73c0,0.76 0.17,1.35 0.51,1.77 0.34,0.42 0.8,0.63 1.39,0.63z"/>
  <path id="_18" class="fil2" d="M210.22 130.36c2.12,0 3.17,1.03 3.17,3.08l0 5.02 -1.52 0 0.02 -1.11 -0.11 0c-0.57,0.87 -1.36,1.3 -2.38,1.3 -0.74,0 -1.33,-0.22 -1.78,-0.64 -0.45,-0.43 -0.67,-1 -0.67,-1.72 0,-0.77 0.29,-1.39 0.86,-1.85 0.57,-0.47 1.44,-0.76 2.6,-0.88l1.3 -0.14c-0.02,-0.56 -0.16,-0.97 -0.43,-1.24 -0.27,-0.27 -0.68,-0.4 -1.24,-0.4 -0.4,0 -0.8,0.05 -1.21,0.14 -0.41,0.1 -0.79,0.24 -1.13,0.42l0 -1.5c0.3,-0.13 0.68,-0.25 1.12,-0.34 0.45,-0.1 0.91,-0.14 1.38,-0.14zm-0.33 6.91c0.51,0 0.94,-0.19 1.3,-0.57 0.36,-0.38 0.54,-0.94 0.54,-1.68l0 -0.39 -1.24 0.12c-1.2,0.13 -1.81,0.59 -1.81,1.37 0,0.35 0.11,0.64 0.33,0.84 0.22,0.21 0.51,0.31 0.89,0.31z"/>
  <path id="_19" class="fil2" d="M218 138.59c-0.83,0 -1.44,-0.19 -1.83,-0.57 -0.39,-0.38 -0.58,-1 -0.58,-1.86l0 -6.92 -1.43 0 0 -1.4 3.1 0 0 8.17c0,0.42 0.09,0.7 0.28,0.86 0.19,0.16 0.49,0.24 0.9,0.24 0.19,0 0.34,-0.01 0.44,-0.02l0 1.44c-0.36,0.04 -0.66,0.06 -0.88,0.06z"/>
  <path id="_20" class="fil2" d="M222.48 138.47l-1.65 0 0 -6.53 -1.52 0 0 -1.4 3.17 0 0 7.92zm-0.91 -8.86c-0.3,0 -0.56,-0.1 -0.77,-0.31 -0.21,-0.21 -0.32,-0.47 -0.32,-0.78 0,-0.31 0.11,-0.57 0.32,-0.78 0.21,-0.21 0.47,-0.31 0.77,-0.31 0.3,0 0.56,0.1 0.77,0.31 0.21,0.21 0.32,0.47 0.32,0.78 0,0.31 -0.11,0.57 -0.32,0.78 -0.21,0.21 -0.47,0.31 -0.77,0.31z"/>
 </g>
</svg>
